<?xml version="1.0" standalone="no"?>
<!DOCTYPE svg PUBLIC "-//W3C//DTD SVG 20010904//EN"
 "http://www.w3.org/TR/2001/REC-SVG-20010904/DTD/svg10.dtd">
<svg version="1.0" xmlns="http://www.w3.org/2000/svg"
 width="612.000000pt" height="408.000000pt" viewBox="0 0 612.000000 408.000000"
 preserveAspectRatio="xMidYMid meet">

<g transform="translate(0.000000,408.000000) scale(0.100000,-0.100000)"
fill="#000000" stroke="none">
<path d="M2855 4069 c-603 -49 -996 -159 -1455 -407 -289 -156 -608 -434 -767
-668 -158 -233 -223 -384 -285 -669 -33 -153 -31 -386 5 -555 40 -186 63 -253
148 -435 6 -11 15 -29 22 -40 7 -11 30 -49 51 -85 91 -153 270 -354 441 -495
243 -199 575 -384 860 -477 171 -56 285 -90 330 -100 28 -5 70 -14 95 -20 331
-70 752 -95 1070 -63 343 34 478 60 750 145 314 99 530 202 790 377 150 101
205 146 328 266 99 95 292 328 292 351 0 2 19 35 42 72 70 116 128 258 169
414 24 93 49 285 49 380 0 171 -44 391 -113 570 -42 110 -51 127 -124 252
-171 288 -493 590 -827 774 -388 214 -813 347 -1261 394 -307 32 -415 35 -610
19z m430 -139 c77 -5 172 -15 210 -21 378 -58 564 -106 828 -213 352 -143 641
-334 870 -575 140 -148 224 -268 306 -436 131 -268 179 -566 136 -835 -17
-102 -18 -108 -65 -250 -230 -693 -1033 -1248 -2002 -1384 -94 -14 -270 -30
-291 -28 -5 1 -24 43 -42 94 -33 95 -136 313 -221 470 l-47 87 34 173 33 173
68 72 c45 48 68 80 68 96 0 23 3 24 66 23 50 -1 68 3 77 15 7 9 28 20 47 24
19 4 46 17 60 30 14 12 35 26 48 30 13 4 31 19 40 33 12 20 26 27 50 29 42 1
62 19 62 54 0 29 -16 51 -61 82 -20 15 -22 19 -9 27 24 16 93 11 152 -9 70
-24 250 -109 307 -145 36 -23 48 -26 67 -17 25 11 37 6 498 -224 l201 -100 50
-123 c28 -68 59 -128 68 -134 40 -22 118 23 163 93 33 53 60 169 42 180 -17
11 -67 17 -202 24 l-108 6 -267 129 c-364 178 -395 195 -401 221 -9 39 -261
181 -405 230 -98 33 -212 33 -278 0 -47 -23 -48 -23 -85 -5 -23 12 -67 20
-118 22 l-80 4 0 261 c1 278 -5 335 -49 432 -12 27 -32 61 -45 75 l-22 25 44
14 c23 7 74 13 112 12 68 -1 70 0 107 38 45 48 64 117 48 177 -11 42 -41 74
-68 74 -13 0 -22 18 -35 70 -11 40 -24 70 -31 70 -20 0 -26 61 -10 105 8 22
14 50 15 63 0 13 7 30 15 38 10 10 12 21 5 37 -5 12 -14 51 -20 86 -24 134
-82 231 -174 295 -80 55 -128 69 -236 70 -82 0 -103 -3 -152 -26 -134 -62
-222 -158 -268 -294 -28 -79 -28 -246 0 -345 22 -79 19 -83 -46 -77 -35 3 -39
6 -37 28 2 14 7 65 12 115 6 58 5 98 -1 115 -6 14 -10 49 -9 77 2 44 -2 56
-23 78 -29 29 -43 31 -75 8 -20 -13 -53 -17 -180 -18 -126 -2 -170 -6 -228
-24 -307 -90 -540 -332 -676 -701 -99 -269 -148 -624 -127 -930 26 -387 121
-706 286 -963 66 -102 192 -223 287 -276 70 -39 88 -57 71 -74 -12 -12 -265
132 -404 229 -261 182 -498 450 -622 699 -52 105 -122 318 -139 425 -19 117
-17 353 5 462 34 178 121 392 223 550 228 354 634 669 1093 847 47 18 99 39
115 46 53 23 229 74 341 99 100 23 157 33 364 66 170 27 447 35 665 20z m-515
-202 c-14 -6 -50 -22 -81 -35 -65 -28 -111 -72 -134 -126 l-15 -37 -33 16
c-17 9 -34 18 -36 20 -2 2 13 24 33 48 43 53 139 104 218 116 73 10 77 10 48
-2z m387 -198 c15 -30 28 -76 31 -102 l5 -48 -37 0 c-36 0 -109 -30 -121 -49
-3 -6 -33 20 -67 57 -34 37 -71 75 -82 86 -20 18 -20 18 10 0 17 -11 51 -36
74 -57 24 -20 45 -36 47 -34 2 2 -4 23 -12 47 -21 59 -19 60 20 15 l35 -40 -6
45 -6 45 22 -25 21 -25 -7 40 -6 40 22 -34 c33 -52 33 -31 0 58 -16 45 -30 88
-30 94 1 21 61 -56 87 -113z m-528 -77 c91 -48 215 -112 274 -143 100 -52 106
-57 90 -72 -17 -14 -31 -8 -173 73 -85 48 -202 114 -259 146 -90 50 -132 83
-105 83 4 0 82 -39 173 -87z m-14 -128 c69 -55 164 -130 210 -166 154 -122
152 -119 131 -135 -17 -12 -24 -9 -69 29 -64 54 -166 138 -315 259 -129 104
-137 112 -127 129 8 12 4 15 170 -116z m-440 35 c3 -6 -5 -10 -19 -10 -32 0
-40 -16 -60 -119 -8 -46 -17 -85 -19 -87 -1 -2 -30 3 -62 11 -178 40 -324 39
-385 -5 -36 -25 -35 -23 -60 -205 -11 -82 -27 -190 -35 -240 -20 -128 -31
-200 -65 -455 -58 -428 -73 -531 -125 -883 -13 -87 -13 -102 0 -128 43 -83
151 -146 297 -175 l85 -16 14 -82 c8 -44 13 -92 12 -105 -2 -22 -71 -252 -78
-259 -10 -11 -143 84 -205 147 -191 192 -312 480 -371 886 -18 119 -18 511 0
630 33 230 78 386 162 563 82 175 206 327 343 421 60 41 171 88 249 105 73 16
313 21 322 6z m1028 -25 c-1 -5 -20 -13 -43 -17 -22 -4 -62 -19 -89 -34 -37
-19 -53 -24 -67 -16 -15 9 -14 11 10 27 63 41 195 69 189 40z m-733 -285 c7
-30 21 -72 32 -93 19 -38 19 -38 -1 -27 -11 5 -33 32 -48 58 -25 42 -28 56
-28 142 0 52 4 118 10 145 9 48 9 46 15 -60 4 -60 13 -135 20 -165z m715 193
c-3 -27 -7 -70 -8 -98 -2 -46 -4 -50 -27 -51 -14 0 -51 -13 -83 -28 -50 -24
-61 -26 -73 -15 -11 12 -10 23 8 71 34 93 109 166 172 168 16 0 17 -6 11 -47z
m-272 -12 c11 -11 -2 -81 -15 -81 -5 0 -30 14 -55 31 -38 26 -43 33 -29 41 10
5 23 5 36 -2 22 -12 27 -1 8 19 -11 11 -8 12 17 7 17 -4 34 -11 38 -15z m71
-51 c-4 -8 -11 -35 -16 -59 -10 -41 -12 -43 -24 -26 -16 22 -18 63 -4 100 9
23 12 24 30 13 12 -8 18 -19 14 -28z m-741 -140 c73 -15 75 -19 58 -92 -6 -26
-6 -26 -81 44 -41 38 -68 68 -60 65 8 -2 45 -10 83 -17z m983 -12 c23 -45 22
-124 -4 -173 l-20 -40 -7 50 c-10 65 -37 117 -77 149 l-32 25 24 10 c14 5 42
10 62 10 32 1 40 -3 54 -31z m-1471 -8 c55 -12 143 -24 195 -27 82 -4 100 -2
133 15 l37 20 0 -93 0 -93 -55 -31 c-30 -17 -62 -42 -71 -56 -9 -14 -19 -24
-21 -21 -2 2 5 43 16 90 11 47 18 92 15 101 -7 18 -48 20 -62 3 -5 -7 -22 -80
-36 -163 -32 -176 -38 -199 -77 -284 -46 -98 -126 -309 -189 -496 l-57 -170
-7 144 -8 143 42 43 c44 45 45 62 5 95 -14 12 -13 17 16 46 l31 32 -26 17
c-14 10 -26 21 -26 26 0 4 20 22 45 40 l45 33 -36 37 -36 37 53 27 c58 30 58
30 -11 76 l-24 16 42 27 c23 14 42 30 42 35 0 5 -16 24 -35 42 -19 19 -35 36
-35 40 0 3 28 14 63 23 l62 18 -39 31 c-90 72 -87 66 -31 67 96 2 95 10 -4 74
-90 57 -108 73 -73 62 9 -3 62 -15 117 -26z m1082 5 l51 -18 -26 -35 c-53 -70
-34 -205 43 -307 15 -19 26 -37 24 -39 -4 -4 -163 64 -244 104 l-40 20 40 -6
c22 -4 59 -12 83 -19 23 -7 42 -10 42 -7 0 4 -30 27 -66 51 -35 25 -70 51 -77
59 -10 12 -7 14 18 9 17 -3 50 -9 75 -12 l45 -7 -65 61 -65 61 44 -15 c24 -8
46 -15 48 -15 3 0 -16 25 -42 55 -25 30 -43 55 -38 55 5 0 13 -4 19 -8 5 -5
31 -21 57 -36 l48 -27 -26 52 c-17 32 -22 50 -13 47 7 -3 36 -13 65 -23z m261
-45 c98 -60 94 -193 -8 -247 -24 -13 -55 -23 -70 -23 -35 0 -88 36 -117 79
-59 88 12 211 122 211 22 0 54 -9 73 -20z m206 -82 c42 -59 -6 -170 -83 -193
-26 -8 -25 -3 17 52 18 24 26 50 30 98 2 36 8 65 13 65 4 0 15 -10 23 -22z
m-1013 -28 c184 -57 317 -222 385 -475 40 -151 63 -298 70 -450 l7 -145 -26 0
c-14 0 -33 -3 -43 -7 -16 -6 -17 1 -10 99 18 279 -47 566 -168 745 -72 108
-135 167 -240 225 -61 33 -58 34 25 8z m25 -106 c56 -37 103 -89 125 -138 15
-33 19 -65 19 -161 0 -140 -19 -265 -61 -389 -31 -92 -112 -264 -150 -318
l-22 -31 109 6 c60 4 185 10 277 13 l168 7 -8 -29 c-4 -16 -8 -86 -8 -157 0
-70 -3 -117 -6 -105 -4 13 -17 60 -29 106 -13 46 -26 79 -30 75 -4 -4 -24 -59
-45 -121 -21 -62 -40 -111 -42 -109 -2 2 3 59 10 127 l13 123 -29 -34 c-16
-19 -53 -64 -83 -101 -30 -38 -57 -68 -59 -68 -6 0 44 110 77 168 l29 52 -182
0 -182 0 -81 -68 c-44 -37 -90 -74 -100 -82 -11 -8 11 25 48 73 38 48 66 90
64 92 -2 3 -37 8 -76 11 -40 4 -72 10 -72 14 0 4 29 15 65 25 36 9 65 21 65
25 0 10 -72 30 -133 37 -81 9 -88 19 -25 33 71 16 120 7 162 -30 19 -17 38
-30 43 -30 25 0 107 106 152 197 64 128 75 188 78 417 3 200 2 211 -20 254
-12 25 -43 67 -69 94 -52 54 -50 61 8 22z m-77 -34 c8 -4 -2 -9 -28 -13 -127
-17 -252 -142 -376 -379 -30 -57 -55 -100 -55 -96 0 20 74 196 116 272 73 132
140 201 222 226 28 9 97 3 121 -10z m726 -134 c56 -11 61 -15 82 -54 55 -104
79 -271 69 -480 -10 -216 -7 -208 -74 -220 -32 -6 -77 -13 -102 -16 l-45 -6
35 16 c19 9 50 25 69 37 l34 20 -54 28 -54 27 28 11 c16 6 34 11 42 11 43 0
45 12 10 53 -42 48 -43 55 -10 52 31 -4 31 -1 0 53 -13 23 -22 42 -20 42 2 0
16 -5 30 -10 26 -10 26 -9 -20 76 l-46 87 36 -23 37 -23 -36 72 -36 71 36 0
36 0 -93 101 -93 101 40 -7 c21 -4 66 -13 99 -19z m-1341 -841 c-8 -33 -17
-112 -20 -175 -10 -176 23 -275 113 -343 43 -32 26 -35 -37 -6 -56 25 -77 44
-102 92 -42 84 -34 225 23 405 34 104 46 119 23 27z m1714 45 c48 -22 248
-173 255 -193 8 -21 -13 -47 -37 -47 -13 0 -53 14 -89 30 -84 38 -92 38 -34
-1 55 -36 60 -43 52 -68 -10 -34 -36 -33 -108 4 -38 20 -71 34 -73 32 -2 -2
16 -19 41 -37 47 -35 53 -48 33 -68 -19 -19 -44 -14 -111 19 -65 33 -66 30 -4
-15 43 -32 46 -42 13 -57 -20 -10 -43 -3 -152 45 -98 42 -148 58 -207 65 -43
5 -80 11 -81 13 -53 73 -61 121 -31 187 l17 38 171 35 c204 42 284 46 345 18z
m-949 -346 c-40 -83 -145 -145 -284 -168 -39 -6 -38 -5 26 29 68 37 139 90
139 105 0 4 -57 -8 -127 -27 -71 -19 -137 -37 -148 -39 -37 -8 39 25 130 57
100 35 242 102 265 125 25 25 25 -30 -1 -82z m337 -55 c8 -52 22 -104 30 -117
18 -27 19 -25 -21 -44 -140 -70 -424 -109 -773 -107 l-177 1 185 28 c327 50
577 101 645 132 20 9 31 31 57 109 18 54 33 97 35 95 2 -2 10 -45 19 -97z
m367 -37 l38 -20 -64 -56 c-68 -60 -96 -68 -145 -42 -28 14 -68 54 -61 59 2 2
35 32 72 66 l69 63 26 -25 c15 -14 44 -34 65 -45z m-195 -138 c7 -4 -127 -255
-173 -324 -27 -41 -99 -125 -160 -186 -101 -102 -119 -116 -215 -163 -197 -96
-371 -106 -593 -34 -81 26 -102 44 -26 21 29 -8 106 -13 224 -13 167 0 185 2
255 26 228 77 420 273 582 592 60 117 60 118 82 100 11 -10 22 -18 24 -19z
m-398 -180 c-41 -41 -97 -94 -125 -117 l-50 -42 27 35 c15 19 46 62 70 95 l43
60 -65 -49 c-36 -27 -71 -54 -79 -60 -8 -6 0 15 18 47 l33 59 -61 -42 c-75
-50 -178 -95 -279 -121 -110 -28 -119 -23 -22 15 121 46 200 89 264 140 58 48
62 49 236 54 l64 2 -74 -76z m451 -61 l-34 -138 46 -76 c26 -42 47 -79 47 -82
0 -4 14 -29 30 -57 50 -85 170 -394 157 -406 -2 -2 -82 17 -178 43 l-174 48
90 5 90 5 -82 40 -82 40 51 5 52 5 -67 53 c-37 30 -67 58 -67 63 0 5 26 9 58
9 55 1 56 1 36 18 -12 9 -43 30 -70 47 l-49 29 36 6 37 5 -44 35 -44 35 36 10
c54 15 30 25 -63 25 -47 0 -83 4 -81 9 2 5 20 30 42 55 30 37 45 46 70 46 49
0 48 -1 138 170 45 84 48 90 52 90 1 0 -14 -62 -33 -137z m-886 -153 c61 -6
192 -10 293 -10 181 0 182 0 170 -20 -7 -12 -24 -24 -37 -27 -41 -10 -339 16
-491 43 -149 26 -197 41 -100 30 30 -4 105 -11 165 -16z"/>
<path d="M4725 3333 c-46 -56 -54 -75 -55 -118 0 -108 122 -172 213 -111 23
16 38 21 45 14 6 -6 12 -6 16 0 3 6 2 13 -3 16 -5 4 -5 19 1 40 24 78 -24 154
-115 181 -68 20 -68 20 -102 -22z m134 -22 c12 -8 13 -12 2 -25 -11 -12 -17
-14 -27 -5 -31 25 -9 51 25 30z m-114 -74 c-1 -74 -11 -99 -32 -72 -23 33 -12
105 21 127 6 4 11 8 11 8 0 0 0 -28 0 -63z m161 19 c3 -13 4 -36 2 -51 -3 -28
-3 -27 -24 13 -16 29 -19 43 -11 51 17 17 26 13 33 -13z m-86 -116 c0 -19 -29
-30 -54 -20 -30 11 -33 25 -9 38 17 10 63 -4 63 -18z m25 -20 c-3 -5 -10 -10
-16 -10 -5 0 -9 5 -9 10 0 6 7 10 16 10 8 0 12 -4 9 -10z"/>
<path d="M3603 3348 c-59 -13 -103 -66 -103 -126 0 -52 35 -122 61 -122 10 0
21 -4 24 -10 3 -5 22 -10 41 -10 25 0 34 -4 35 -17 0 -17 1 -17 7 0 4 9 22 27
41 38 27 17 36 18 49 7 15 -11 15 -11 4 3 -10 13 -9 23 3 52 19 46 19 71 -1
113 -16 33 -66 72 -101 78 -10 1 -37 -1 -60 -6z m52 -50 l-6 -23 13 22 c9 16
17 20 28 13 12 -7 11 -12 -4 -29 l-19 -21 -29 26 c-24 20 -33 22 -45 12 -8 -6
-12 -20 -10 -30 4 -13 -1 -18 -16 -19 -21 -1 -21 -1 1 -7 13 -4 23 -10 23 -14
-1 -5 -1 -17 -1 -28 0 -26 -39 -48 -51 -29 -13 20 -10 71 5 97 16 29 52 50 89
51 25 1 28 -2 22 -21z m79 -34 c10 -27 7 -32 -16 -28 -21 4 -21 4 2 -6 33 -15
33 -13 14 -54 -21 -42 -39 -48 -31 -10 3 18 -2 33 -14 45 -19 19 -18 19 3 44
25 29 34 31 42 9z m-114 -101 c0 -10 5 -25 11 -33 9 -13 10 -12 5 2 -5 15 -3
16 14 5 31 -19 24 -27 -21 -23 -51 5 -55 10 -41 41 13 29 32 33 32 8z"/>
<path d="M3984 3349 c-39 -11 -94 -71 -94 -102 0 -13 -5 -28 -11 -34 -16 -16
46 -99 89 -119 26 -12 49 -15 90 -10 77 9 86 16 101 84 12 55 11 63 -7 105
-29 64 -99 96 -168 76z m96 -39 c22 -14 4 -25 -38 -21 -26 1 -46 -4 -64 -18
-51 -41 -67 -19 -17 23 32 27 89 35 119 16z m49 -61 c17 -50 12 -58 -9 -15
-23 45 -23 46 -11 46 5 0 14 -14 20 -31z m-179 -84 c0 -8 -2 -15 -4 -15 -2 0
-6 7 -10 15 -3 8 -1 15 4 15 6 0 10 -7 10 -15z m97 9 c-3 -3 -12 -4 -19 -1 -8
3 -5 6 6 6 11 1 17 -2 13 -5z m63 -24 c0 -5 -9 -14 -21 -20 -25 -14 -108 -22
-87 -9 9 6 6 9 -11 9 -20 0 -21 2 -11 15 7 8 21 13 33 11 11 -1 34 0 51 4 33
7 46 4 46 -10z"/>
<path d="M4381 3349 c-13 -5 -33 -7 -45 -4 -14 4 -17 3 -8 -3 9 -6 6 -14 -13
-32 -15 -14 -28 -40 -31 -62 -4 -21 -12 -38 -18 -38 -8 0 -8 -2 0 -8 7 -4 19
-24 27 -44 19 -46 69 -78 120 -78 46 0 72 12 113 54 18 17 43 39 58 49 32 22
34 47 4 47 -16 0 -19 -3 -10 -8 16 -10 5 -42 -14 -42 -10 0 -14 13 -14 41 0
22 -7 53 -16 69 -29 49 -105 78 -153 59z m89 -39 c13 -8 10 -15 -18 -42 -18
-19 -30 -25 -26 -16 4 12 0 20 -12 25 -19 7 -34 22 -34 36 0 10 72 8 90 -3z
m-120 -63 c-12 -26 -25 -47 -30 -47 -17 0 -11 44 11 79 30 50 45 26 19 -32z
m164 17 c8 -22 7 -82 -1 -87 -5 -3 -19 0 -33 5 -24 10 -24 11 -5 18 19 8 19 9
-2 9 -13 1 -23 6 -23 12 0 5 5 7 12 3 7 -5 8 -3 4 5 -5 7 0 21 10 32 21 23 30
24 38 3z m-101 -1 c-7 -2 -21 -2 -30 0 -10 3 -4 5 12 5 17 0 24 -2 18 -5z
m-62 -96 c-18 -19 -21 -19 -27 -4 -4 11 2 24 17 36 21 17 24 17 27 4 2 -9 -5
-25 -17 -36z m66 1 c-6 -23 -6 -23 9 -3 9 12 18 16 22 10 4 -6 13 -10 20 -11
27 -2 32 -4 32 -14 0 -15 -55 -40 -88 -40 -15 0 -37 6 -48 14 -19 14 -19 15 5
40 31 33 56 35 48 4z"/>
<path d="M3568 2963 c-22 -3 -32 -15 -48 -50 -29 -67 -27 -121 9 -164 54 -65
142 -71 204 -14 23 22 27 23 28 8 1 -10 6 2 11 26 25 114 -32 203 -131 200
-25 -1 -58 -4 -73 -6z m116 -36 c16 -12 17 -14 1 -27 -14 -12 -20 -10 -43 13
l-27 27 26 0 c14 0 33 -6 43 -13z m-79 -53 c27 -18 33 -24 17 -21 -13 3 -37 1
-54 -4 -39 -11 -44 -6 -30 26 14 31 17 31 67 -1z m125 7 c0 -14 -5 -18 -20
-14 -16 4 -18 8 -9 19 16 20 29 17 29 -5z m-26 -128 c-34 -27 -104 -33 -104
-8 0 9 -6 12 -15 9 -11 -5 -13 -2 -9 10 4 10 13 15 20 12 8 -3 14 -2 14 3 0 4
12 8 28 9 15 0 38 5 52 10 19 7 27 6 34 -6 7 -11 1 -22 -20 -39z"/>
<path d="M3949 2947 c-19 -12 -40 -37 -48 -55 -8 -17 -23 -34 -33 -38 -25 -8
-22 -29 7 -48 14 -9 25 -22 25 -29 0 -22 55 -67 94 -78 73 -20 157 38 172 118
4 21 11 44 16 50 15 18 2 43 -21 43 -11 0 -24 6 -28 13 -31 50 -126 63 -184
24z m115 -14 c4 -5 12 -9 17 -9 5 -1 12 -2 16 -3 4 0 -4 -11 -17 -23 -21 -20
-24 -20 -35 -5 -17 23 -42 21 -55 -3 -7 -13 -7 -20 -1 -20 6 0 8 -6 5 -14 -4
-10 -13 -12 -32 -7 -37 10 -38 27 -4 61 22 22 40 30 65 30 18 0 37 -3 41 -7z
m56 -37 c0 -3 -4 -8 -10 -11 -5 -3 -10 -1 -10 4 0 6 5 11 10 11 6 0 10 -2 10
-4z m8 -96 c-14 -40 -41 -61 -87 -67 -39 -5 -41 -5 -41 22 0 27 1 27 19 11 16
-15 20 -15 31 -1 7 8 10 26 8 39 -6 28 8 34 54 28 24 -4 25 -6 16 -32z m-158
-5 c-12 -13 -27 -22 -31 -19 -15 9 -10 19 14 30 37 19 42 15 17 -11z m17 -52
c-3 -3 -11 -2 -17 2 -8 5 -7 11 2 22 12 15 13 14 16 -1 2 -10 1 -20 -1 -23z"/>
<path d="M4070 2781 c0 -6 4 -13 10 -16 6 -3 7 1 4 9 -7 18 -14 21 -14 7z"/>
<path d="M4350 2957 c-68 -34 -91 -134 -46 -200 13 -19 21 -38 18 -42 -4 -4
-2 -5 3 -4 6 1 29 -3 51 -10 102 -33 200 67 172 175 -4 18 -24 46 -43 63 -29
25 -44 31 -83 31 -26 0 -58 -6 -72 -13z m100 -27 c0 -5 7 -7 15 -4 19 7 19 -5
1 -29 -10 -13 -15 -15 -19 -5 -2 7 -8 1 -12 -14 -9 -36 -22 -35 -30 2 -4 16
-11 32 -16 35 -20 13 -7 25 26 25 19 0 35 -4 35 -10z m-55 -47 c6 -21 4 -22
-27 -17 l-33 6 27 -25 c29 -27 22 -37 -29 -37 -24 0 -25 3 -20 36 8 47 46 90
63 72 6 -7 15 -23 19 -35z m125 -34 c0 -31 -2 -32 -39 -22 -23 6 -23 7 -5 14
17 7 16 8 -6 8 l-25 1 25 24 c30 28 50 18 50 -25z m-12 -38 c15 -1 15 -11 -2
-34 -12 -16 -18 -17 -38 -6 -13 7 -18 14 -11 16 7 3 10 10 7 18 -4 9 1 12 13
10 10 -2 24 -4 31 -4z m-158 -26 c-12 -15 -30 -12 -30 6 0 5 10 9 21 9 18 0
19 -2 9 -15z m80 -42 c0 -17 -42 -16 -66 1 -16 13 -17 17 -5 28 10 9 12 9 7 1
-13 -22 9 -14 23 9 l13 22 14 -25 c7 -13 13 -30 14 -36z m35 -4 c-6 -9 -11 -7
-22 6 -7 11 -13 26 -13 34 0 12 5 11 21 -6 13 -13 18 -26 14 -34z"/>
<path d="M4744 2960 c-12 -5 -25 -13 -29 -19 -3 -6 -12 -8 -18 -5 -7 4 -9 4
-5 -1 4 -4 1 -20 -7 -36 -28 -54 -14 -130 31 -170 11 -9 36 -22 57 -29 43 -14
94 -1 122 30 10 11 22 17 28 13 6 -3 7 -1 3 5 -4 7 -3 12 3 12 34 0 28 107 -9
156 -37 50 -114 69 -176 44z m104 -26 c26 -7 27 -12 6 -39 -14 -19 -15 -19
-60 4 -32 17 -41 27 -32 32 15 10 54 11 86 3z m56 -56 c11 -43 4 -48 -29 -24
-16 11 -17 15 -4 29 19 22 26 21 33 -5z m-193 -41 c-8 -8 -11 -7 -11 4 0 20
13 34 18 19 3 -7 -1 -17 -7 -23z m45 -7 c21 0 17 -14 -10 -39 l-24 -23 -11 21
c-9 16 -8 25 6 41 10 11 19 16 21 10 2 -5 10 -10 18 -10z m111 -66 c10 -9 9
-13 -2 -18 -8 -3 -22 -3 -30 0 -8 4 -15 1 -15 -5 0 -14 -37 -15 -45 -1 -4 6
-10 8 -15 5 -5 -3 -12 0 -16 6 -3 6 6 21 21 34 27 20 30 21 59 6 17 -8 37 -20
43 -27z"/>
<path d="M4787 2786 c-4 -10 -1 -13 8 -9 8 3 12 9 9 14 -7 12 -11 11 -17 -5z"/>
<path d="M4030 2582 c-85 -11 -128 -53 -140 -135 -4 -29 -8 -44 -9 -34 0 9 -5
17 -10 17 -5 0 -7 -9 -4 -20 3 -11 11 -20 17 -20 6 0 19 -13 29 -29 33 -57
119 -76 187 -43 29 14 39 27 55 75 l20 58 -25 46 c-28 52 -82 90 -120 85z
m-10 -64 c-11 -23 -11 -23 9 1 12 13 21 19 21 14 0 -6 -9 -18 -20 -28 -11 -10
-20 -15 -20 -10 0 4 -6 2 -13 -4 -20 -16 -27 -3 -15 25 6 13 20 24 30 24 16 0
17 -3 8 -22z m70 4 c0 -13 -36 -43 -43 -36 -9 9 16 44 30 44 7 0 13 -4 13 -8z
m-127 -22 c-3 -11 -10 -20 -15 -20 -5 0 -8 -10 -6 -22 2 -11 -3 -23 -9 -25
-18 -6 -16 24 4 58 20 33 34 38 26 9z m157 -10 c0 -5 -7 -10 -16 -10 -8 0 -12
5 -9 10 3 6 10 10 16 10 5 0 9 -4 9 -10z m-150 -74 c0 -7 -6 -19 -14 -25 -19
-16 -32 5 -16 24 16 19 30 19 30 1z m36 -57 c15 -30 15 -31 -1 -25 -9 3 -19 6
-21 6 -2 0 -4 11 -4 25 0 33 6 32 26 -6z m42 -9 c9 -15 9 -20 1 -20 -12 0 -38
29 -39 42 0 13 25 -2 38 -22z"/>
<path d="M4770 2580 c0 -8 -9 -10 -25 -6 -18 5 -25 2 -25 -8 0 -8 -11 -32 -25
-52 -62 -91 3 -214 113 -214 66 0 126 50 137 115 4 22 12 46 18 53 7 8 5 12
-7 12 -9 0 -16 4 -16 9 0 21 -70 79 -101 86 -19 3 -42 9 -51 11 -10 3 -18 0
-18 -6z m90 -50 c12 -8 9 -15 -20 -45 -18 -19 -38 -35 -44 -35 -6 0 -5 5 2 12
7 7 12 27 12 45 0 35 18 43 50 23z m-120 -55 c0 -19 -4 -35 -10 -35 -5 0 -10
-4 -10 -10 0 -5 7 -10 15 -10 19 0 19 -14 1 -29 -29 -24 -47 44 -24 94 16 35
28 31 28 -10z m160 10 c0 -8 -4 -15 -9 -15 -5 0 -18 -3 -28 -7 -17 -6 -17 -5
1 15 22 26 36 28 36 7z m10 -55 c0 -25 -27 -80 -39 -80 -5 0 -12 14 -16 31 -4
17 -13 33 -21 36 -26 10 -15 22 24 26 20 2 40 4 45 5 4 1 7 -7 7 -18z m-95
-56 c17 -42 18 -44 7 -44 -4 0 -13 18 -19 40 -13 50 -8 51 12 4z m-45 -20 c0
-16 -16 -19 -25 -4 -8 13 4 32 16 25 5 -4 9 -13 9 -21z"/>
<path d="M3585 2568 c-11 -6 -33 -23 -50 -37 -26 -22 -30 -34 -33 -81 -3 -68
19 -109 73 -134 137 -65 266 102 165 212 -45 49 -109 66 -155 40z m98 -34 c23
-7 22 -21 -5 -35 -18 -10 -24 -8 -35 7 -9 12 -23 18 -40 16 -14 -2 -23 0 -20
6 7 10 73 14 100 6z m-113 -35 c0 -11 -4 -17 -10 -14 -19 12 -10 -13 9 -26 23
-16 19 -64 -7 -74 -33 -12 -43 54 -17 105 18 35 25 38 25 9z m160 -14 c10 -12
10 -15 -4 -15 -9 0 -16 7 -16 15 0 8 2 15 4 15 2 0 9 -7 16 -15z m-3 -102
c-18 -39 -85 -67 -71 -29 3 8 15 11 30 8 21 -4 24 -1 24 27 0 22 4 29 14 25
12 -5 13 -11 3 -31z m-131 -41 c-12 -11 -18 7 -10 30 l8 23 4 -23 c2 -13 1
-26 -2 -30z"/>
<path d="M4355 2561 c-48 -29 -67 -57 -72 -103 -14 -119 92 -191 205 -140 24
11 42 21 41 23 -1 2 1 14 5 27 5 15 13 21 22 18 8 -3 14 -1 14 4 0 6 -4 10
-10 10 -5 0 -10 19 -10 43 0 104 -110 171 -195 118z m35 -41 c0 -13 -5 -18
-15 -14 -16 7 -19 17 -8 27 12 13 23 7 23 -13z m80 10 c13 -8 11 -14 -13 -37
-17 -17 -25 -21 -22 -11 5 13 2 15 -14 11 -17 -4 -21 -1 -21 21 0 22 4 26 28
26 15 0 34 -5 42 -10z m-114 -70 c8 0 14 -6 14 -14 0 -8 6 -17 13 -19 7 -3 5
-6 -5 -6 -10 -1 -22 -10 -28 -21 -6 -11 -15 -20 -20 -20 -17 0 -23 70 -9 98
13 26 13 27 17 5 2 -13 10 -23 18 -23z m158 24 c3 -9 6 -29 6 -46 0 -30 0 -31
-20 -13 -11 10 -17 21 -15 25 3 5 -1 10 -7 13 -10 3 -10 7 1 20 17 21 27 21
35 1z m-92 -96 c11 -13 17 -17 13 -11 -3 8 6 6 24 -5 30 -17 30 -17 8 -29 -30
-17 -79 -16 -103 1 -19 14 -19 15 5 40 30 31 28 31 53 4z"/>
<path d="M3947 2203 c-4 -3 -7 -14 -7 -23 0 -20 -32 -51 -68 -66 -26 -10 -26
-11 -6 -18 17 -5 22 -17 26 -57 4 -40 11 -55 38 -79 18 -16 49 -32 69 -35 20
-4 46 -8 59 -11 12 -2 22 0 22 7 0 7 10 9 25 7 20 -4 23 -3 14 8 -9 11 -7 14
10 14 12 0 21 6 20 13 -2 6 3 31 11 54 11 37 11 48 -5 89 -21 55 -62 84 -122
84 -24 0 -43 5 -46 13 -4 7 -6 6 -6 -4 -1 -9 -8 -20 -17 -23 -12 -4 -14 -1 -9
14 6 20 4 25 -8 13z m141 -58 c11 -11 -30 -43 -49 -38 -24 7 -24 19 -1 32 9 6
12 11 7 11 -6 0 -21 -7 -33 -16 -27 -18 -35 -15 -26 11 6 14 15 16 52 11 25
-3 48 -8 50 -11z m36 -41 c8 -20 8 -24 -1 -24 -17 0 -35 19 -29 29 10 16 23
14 30 -5z m-227 0 c-3 -3 -12 -4 -19 -1 -8 3 -5 6 6 6 11 1 17 -2 13 -5z m61
-58 c11 -21 11 -30 1 -42 -6 -8 -14 -12 -17 -9 -3 2 1 11 7 19 10 12 9 14 -8
9 -18 -5 -21 -1 -21 27 0 38 19 36 38 -4z m172 -22 c0 -8 -4 -12 -10 -9 -5 3
-10 10 -10 16 0 5 5 9 10 9 6 0 10 -7 10 -16z m-120 -55 c13 -24 -7 -26 -36
-4 -16 12 -17 16 -4 24 17 11 26 7 40 -20z"/>
<path d="M4769 2201 c-3 -7 -23 -23 -44 -35 -22 -12 -42 -30 -43 -41 -12 -70
-13 -99 -2 -126 34 -80 167 -107 220 -44 6 7 17 13 23 11 7 -1 9 -1 6 1 -4 2
0 18 8 34 40 80 -28 189 -118 189 -21 0 -39 6 -41 13 -4 9 -6 9 -9 -2z m90
-50 c7 -5 11 -14 7 -20 -10 -16 -54 -9 -73 11 -15 17 -14 18 18 18 19 0 40 -4
48 -9z m-125 -104 c-3 -67 -2 -65 -19 -43 -18 23 -19 69 -4 98 16 30 26 7 23
-55z m174 44 c6 -18 7 -41 2 -58 -7 -22 -9 -24 -10 -8 -2 12 -5 7 -9 -13 -8
-45 -25 -45 -29 1 -3 29 0 37 13 37 9 0 14 4 10 10 -3 5 -12 7 -20 3 -20 -7
-19 16 2 39 22 25 29 23 41 -11z m-140 -48 c-5 -25 -28 -28 -28 -4 0 12 6 21
16 21 9 0 14 -7 12 -17z m6 -46 c-3 -8 3 -20 13 -28 16 -13 17 -12 5 3 -15 19
-2 31 25 21 21 -8 34 -24 27 -35 -7 -11 -84 -2 -98 12 -8 8 -6 15 8 26 24 17
27 17 20 1z"/>
<path d="M3570 2177 c-81 -41 -93 -166 -22 -230 29 -26 111 -33 151 -13 17 9
37 14 43 10 6 -4 8 -3 5 3 -3 5 3 28 14 51 46 92 -17 192 -120 192 -25 0 -57
-6 -71 -13z m114 -30 c17 -13 17 -14 0 -28 -15 -12 -16 -12 -9 0 6 11 4 13 -9
8 -10 -4 -23 -4 -29 0 -7 4 -2 10 13 14 23 6 23 7 3 8 -12 1 -24 -3 -27 -8 -3
-5 -15 -7 -27 -4 -16 4 -17 8 -7 14 20 13 72 11 92 -4z m53 -57 c12 -31 4 -40
-16 -17 -6 8 -8 17 -4 20 3 4 1 7 -6 7 -7 0 -9 5 -6 10 11 17 20 11 32 -20z
m-157 -32 c0 -4 -4 -8 -9 -8 -5 0 -16 -3 -25 -6 -17 -7 -22 19 -10 50 5 14 9
13 25 -5 11 -12 19 -26 19 -31z m5 -38 c-28 -29 -30 -30 -43 -13 -11 16 -10
19 15 30 49 21 59 15 28 -17z m85 -50 l35 -6 -31 -8 c-41 -9 -84 2 -84 22 0 8
8 24 18 35 17 19 17 19 22 -9 4 -24 11 -30 40 -34z m38 30 c13 0 20 -4 17 -10
-3 -5 -24 -10 -46 -10 -29 0 -39 4 -39 16 0 12 6 15 23 10 12 -3 32 -6 45 -6z"/>
<path d="M4324 2155 c-20 -19 -43 -35 -50 -35 -8 0 -14 -4 -14 -10 0 -5 5 -10
10 -10 6 0 10 -19 10 -42 0 -87 68 -145 158 -135 90 10 147 109 107 186 -28
54 -71 81 -130 81 -47 0 -58 -4 -91 -35z m93 -13 c-10 -10 -17 -29 -17 -43 l0
-24 -18 22 c-9 11 -26 23 -37 25 -18 3 -16 6 10 21 17 9 41 16 54 17 23 0 23
-1 8 -18z m24 -39 c-8 -15 -10 -15 -11 -2 0 17 10 32 18 25 2 -3 -1 -13 -7
-23z m-73 -24 c12 -18 11 -23 -7 -36 -12 -8 -21 -24 -21 -36 -1 -22 -1 -22
-15 -3 -15 20 -20 77 -8 89 13 14 38 7 51 -14z m152 -26 c0 -32 -5 -28 -14 10
-4 19 -3 26 4 22 5 -3 10 -18 10 -32z m-53 -10 c-3 -10 -5 -4 -5 12 0 17 2 24
5 18 2 -7 2 -21 0 -30z m-67 -33 c0 -5 12 -21 27 -35 l28 -25 -31 0 c-40 0
-73 33 -54 55 14 17 30 20 30 5z m96 -5 c-23 -17 -42 -19 -51 -5 -3 5 0 7 9 4
8 -3 23 -1 33 5 26 15 31 13 9 -4z"/>
<path d="M3110 3226 c0 -2 7 -6 15 -10 8 -3 15 -1 15 4 0 6 -7 10 -15 10 -8 0
-15 -2 -15 -4z"/>
<path d="M3095 3183 c-56 -7 -60 -11 -36 -36 11 -13 21 -29 21 -37 0 -9 5 -7
14 5 8 11 12 23 9 28 -3 5 3 17 13 28 9 10 15 18 13 18 -2 -1 -17 -4 -34 -6z
m-11 -28 c-5 -12 -10 -13 -20 -4 -19 15 -18 19 6 19 13 0 18 -5 14 -15z"/>
<path d="M2820 3216 c0 -2 7 -7 16 -10 8 -3 12 -2 9 4 -6 10 -25 14 -25 6z"/>
</g>
</svg>
